<?xml version="1.0" encoding="iso-8859-1"?>
<!-- Generator: Adobe Illustrator 18.1.1, SVG Export Plug-In . SVG Version: 6.00 Build 0)  -->
<svg version="1.1" id="Capa_1" xmlns="http://www.w3.org/2000/svg" xmlns:xlink="http://www.w3.org/1999/xlink" x="0px" y="0px"
	 viewBox="0 0 118.735 118.735" style="enable-background:new 0 0 118.735 118.735;" xml:space="preserve">
<g>
	<path style="fill:#010002;" d="M94.821,50.104c-0.137-1.635-1.217-3.92-2.375-5.084L66.83,19.404c-1.152-1.158-3.061-1.158-4.219,0
		l-5.406,5.406c-2.1-2.566-4.374-5.143-6.898-7.673C40.057,6.886,29.137,0,23.141,0c-1.468,0-2.625,0.406-3.437,1.223
		c-2.112,2.112-1.522,6.379,1.689,12.357c3.043,5.645,8.079,12.125,14.213,18.253c10.251,10.251,21.17,17.143,27.167,17.143
		c1.468,0,2.625-0.412,3.443-1.229c1.504-1.504,1.575-4.153,0.352-7.703c3.204,0.835,5.621,3.61,5.621,7.089
		c0,4.123-3.353,7.459-7.459,7.459c-3.318,0-6.027-2.202-6.999-5.197c-1.366-0.483-2.858-1.116-4.583-2.041
		c-3.437-1.85-7.166-4.475-10.931-7.554l-5.221,5.221c-1.152,1.152-2.226,3.443-2.369,5.084l-5.43,65.659
		c-0.143,1.635,1.08,2.972,2.715,2.972h65.636c1.635,0,2.858-1.337,2.715-2.972L94.821,50.104z M22.705,12.882
		c-2.757-5.108-3.485-9.076-1.957-10.591c0.519-0.525,1.331-0.788,2.375-0.788c5.549,0,16.284,6.862,26.105,16.701
		c2.542,2.53,4.827,5.108,6.91,7.679l-11.826,11.82c-2.554-2.071-5.126-4.398-7.661-6.928
		C30.635,24.757,25.677,18.408,22.705,12.882z M65.142,46.691c-0.513,0.525-1.319,0.788-2.375,0.788
		c-1.432,0-3.24-0.477-5.275-1.343c0.501-3.628,3.479-6.468,7.232-6.468c0.054,0,0.107,0.03,0.149,0.03
		C66.168,43.051,66.293,45.557,65.142,46.691z"/>
</g>
<g>
</g>
<g>
</g>
<g>
</g>
<g>
</g>
<g>
</g>
<g>
</g>
<g>
</g>
<g>
</g>
<g>
</g>
<g>
</g>
<g>
</g>
<g>
</g>
<g>
</g>
<g>
</g>
<g>
</g>
</svg>
